<svg width="133" height="18" viewBox="0 0 133 18" fill="none" xmlns="http://www.w3.org/2000/svg">
<path d="M3.9838 0.336167L8.15981 12.0722H8.20781V0.336167H11.3758V17.4722H7.43981L3.21581 5.47217H3.1678V17.4722H-0.000195295V0.336167H3.9838ZM16.8771 8.90417C16.8771 10.0562 16.9011 11.0402 16.9491 11.8562C17.0131 12.6562 17.1251 13.3122 17.2851 13.8242C17.4611 14.3202 17.7011 14.6882 18.0051 14.9282C18.3251 15.1522 18.7411 15.2642 19.2531 15.2642C19.7651 15.2642 20.1731 15.1522 20.4771 14.9282C20.7971 14.6882 21.0371 14.3202 21.1971 13.8242C21.3731 13.3122 21.4851 12.6562 21.5331 11.8562C21.5971 11.0402 21.6291 10.0562 21.6291 8.90417C21.6291 7.75217 21.5971 6.77617 21.5331 5.97617C21.4851 5.17617 21.3731 4.52017 21.1971 4.00817C21.0371 3.49617 20.7971 3.12817 20.4771 2.90417C20.1731 2.66417 19.7651 2.54417 19.2531 2.54417C18.7411 2.54417 18.3251 2.66417 18.0051 2.90417C17.7011 3.12817 17.4611 3.49617 17.2851 4.00817C17.1251 4.52017 17.0131 5.17617 16.9491 5.97617C16.9011 6.77617 16.8771 7.75217 16.8771 8.90417ZM13.4211 8.90417C13.4211 7.60817 13.4771 6.41617 13.5891 5.32817C13.7171 4.22417 13.9811 3.28017 14.3811 2.49617C14.7971 1.71217 15.3891 1.10417 16.1571 0.672167C16.9251 0.224167 17.9571 0.000166893 19.2531 0.000166893C20.5491 0.000166893 21.5811 0.224167 22.3491 0.672167C23.1171 1.10417 23.7011 1.71217 24.1011 2.49617C24.5171 3.28017 24.7811 4.22417 24.8931 5.32817C25.0211 6.41617 25.0851 7.60817 25.0851 8.90417C25.0851 10.2162 25.0211 11.4162 24.8931 12.5042C24.7811 13.5922 24.5171 14.5282 24.1011 15.3122C23.7011 16.0962 23.1171 16.6962 22.3491 17.1122C21.5811 17.5282 20.5491 17.7362 19.2531 17.7362C17.9571 17.7362 16.9251 17.5282 16.1571 17.1122C15.3891 16.6962 14.7971 16.0962 14.3811 15.3122C13.9811 14.5282 13.7171 13.5922 13.5891 12.5042C13.4771 11.4162 13.4211 10.2162 13.4211 8.90417ZM30.357 0.336167V12.2882C30.357 12.7202 30.381 13.1202 30.429 13.4882C30.493 13.8402 30.597 14.1522 30.741 14.4242C30.901 14.6802 31.109 14.8882 31.365 15.0482C31.637 15.1922 31.973 15.2642 32.373 15.2642C32.789 15.2642 33.125 15.1922 33.381 15.0482C33.637 14.8882 33.837 14.6802 33.981 14.4242C34.141 14.1522 34.245 13.8402 34.293 13.4882C34.357 13.1202 34.389 12.7202 34.389 12.2882V0.336167H37.845V12.2882C37.845 13.3762 37.693 14.2802 37.389 15.0002C37.085 15.7042 36.677 16.2642 36.165 16.6802C35.653 17.0962 35.069 17.3762 34.413 17.5202C33.757 17.6642 33.077 17.7362 32.373 17.7362C31.669 17.7362 30.989 17.6722 30.333 17.5442C29.677 17.4162 29.093 17.1602 28.581 16.7762C28.069 16.3762 27.661 15.8162 27.357 15.0962C27.053 14.3762 26.901 13.4402 26.901 12.2882V0.336167H30.357ZM42.5991 0.336167L45.0231 13.0082H45.0951L47.6391 0.336167H51.2151L47.2791 17.4722H42.8391L38.9031 0.336167H42.5991ZM62.0524 0.336167V3.16817H55.9324V7.20017H61.6924V10.0322H55.9324V14.6402H62.2924V17.4722H52.4764V0.336167H62.0524ZM64.0311 17.4722V0.336167H67.4871V14.6402H73.6071V17.4722H64.0311ZM84.3621 8.08817H85.8981C86.5861 8.08817 87.1381 7.88017 87.5541 7.46417C87.9861 7.04817 88.2021 6.40017 88.2021 5.52017C88.2021 4.65617 88.0181 4.00017 87.6501 3.55217C87.2821 3.10417 86.6661 2.88017 85.8021 2.88017H84.3621V8.08817ZM80.9061 0.336167H86.9541C87.8341 0.336167 88.5701 0.488167 89.1621 0.792167C89.7701 1.08017 90.2581 1.46417 90.6261 1.94417C90.9941 2.42417 91.2581 2.97617 91.4181 3.60017C91.5781 4.20817 91.6581 4.83217 91.6581 5.47217C91.6581 6.35217 91.5221 7.12017 91.2501 7.77617C90.9941 8.43217 90.6261 8.96817 90.1461 9.38417C89.6821 9.80017 89.1141 10.1122 88.4421 10.3202C87.7701 10.5282 87.0261 10.6322 86.2101 10.6322H84.3621V17.4722H80.9061V0.336167ZM99.6127 11.0162L97.9567 3.31217H97.9087L96.2527 11.0162H99.6127ZM100.069 0.336167L104.605 17.4722H101.005L100.213 13.8482H95.6527L94.8607 17.4722H91.2607L95.7967 0.336167H100.069ZM105.797 17.4722V0.336167H109.253V14.6402H115.373V17.4722H105.797ZM116.978 0.336167H122.114L124.562 12.4322H124.61L127.082 0.336167H132.194V17.4722H129.026V3.79217H128.978L125.93 17.4722H123.242L120.194 3.79217H120.146V17.4722H116.978V0.336167Z" fill="#FDFDFD"/>
</svg>
